<svg xmlns="http://www.w3.org/2000/svg" viewBox="0 0 1000 1000"><path fill="#FF6B00" d="M271 198c18 72 38 118 102 196-44-9-77-36-105-74 14 57 55 101 155 139-46 3-84-7-113-19 18 35 54 58 130 70-18 13-37 15-54 8 17 17 48 25 91 27l-15 63 56-38c26-18 35-35 36-62l9-75 23-29-26-3-26 22-21-8 11 21-9 14-10 2-34-21-78-76 66-38 73-8 73 22 53 43 30 47 15 59-5 63-24 55-43 47-47 27-57 13-55-4 16 30 56 0 61-17 55-36 51-68 21-81-9-75-41-76-33-32-42-26-84-20-79 12-77 44-54-62z M440 605c-38 19-58 54-56 87 1 24 11 43 31 59-11-30-7-65 12-98 8-14 17-25 28-35l-15-13z M440 624c-17 29-24 60-19 89 5 27 18 47 39 61-16-32-23-69-19-111 1-15 4-28 8-39h-9z M450 667c0 52 19 101 60 140v-43c-33-34-48-65-60-97z"/></svg>